Coordinates
version=1
nRows=30
nColumns=21
inDegrees=yes

Units are S.I. units (second, meters, Newtons, ...)
If the header above contains a line with 'inDegrees', this indicates whether rotational values are in degrees (yes) or radians (no).

endheader
time	sternoclavicular_r2	sternoclavicular_r3	unrotscap_r3	unrotscap_r2	acromioclavicular_r2	acromioclavicular_r3	acromioclavicular_r1	unrothum_r1	unrothum_r3	unrothum_r2	elv_angle	shoulder_elev	shoulder1_r2	shoulder_rot	elbow_flexion	pro_sup	deviation	flexion	wrist_hand_r1	wrist_hand_r3
      2.01005025	     -2.80852349	      1.18955799	     -1.18955799	      2.80852349	     -0.56866888	      4.59578183	      2.06577230	     -2.06577230	     -4.59578183	      0.56866888	     69.93578924	     11.60544295	    -69.93578924	      8.90034679	     86.49168774	     81.12680234	      0.00000000	     -0.00000000	     -0.00000000	      0.00000000
      2.03015075	     -2.80852349	      1.18955799	     -1.18955799	      2.80852349	     -0.56866888	      4.59578183	      2.06577230	     -2.06577230	     -4.59578183	      0.56866888	     69.93578924	     11.60544295	    -69.93578924	      8.90034679	     86.96732688	     81.04370045	      0.00000000	     -0.00000000	     -0.00000000	      0.00000000
      2.05025126	     -2.80852349	      1.18955799	     -1.18955799	      2.80852349	     -0.56866888	      4.59578183	      2.06577230	     -2.06577230	     -4.59578183	      0.56866888	     69.93578924	     11.60544295	    -69.93578924	      8.90034679	     87.46799419	     81.31336768	      0.00000000	     -0.00000000	     -0.00000000	      0.00000000
      2.07035176	     -2.80852349	      1.18955799	     -1.18955799	      2.80852349	     -0.56866888	      4.59578183	      2.06577230	     -2.06577230	     -4.59578183	      0.56866888	     69.93578924	     11.60544295	    -69.93578924	      8.90034679	     87.94255826	     81.21412254	      0.00000000	     -0.00000000	     -0.00000000	      0.00000000
      2.09045226	     -2.80852349	      1.18955799	     -1.18955799	      2.80852349	     -0.56866888	      4.59578183	      2.06577230	     -2.06577230	     -4.59578183	      0.56866888	     69.93578924	     11.60544295	    -69.93578924	      8.90034679	     88.41791298	     81.12249741	      0.00000000	     -0.00000000	     -0.00000000	      0.00000000
      2.11055276	     -2.80852349	      1.18955799	     -1.18955799	      2.80852349	     -0.56866888	      4.59578183	      2.06577230	     -2.06577230	     -4.59578183	      0.56866888	     69.93578924	     11.60544295	    -69.93578924	      8.90034679	     88.89337944	     81.03799043	      0.00000000	     -0.00000000	     -0.00000000	      0.00000000
      2.13065327	     -2.80852349	      1.18955799	     -1.18955799	      2.80852349	     -0.56866888	      4.59578183	      2.06577230	     -2.06577230	     -4.59578183	      0.56866888	     69.93578924	     11.60544295	    -69.93578924	      8.90034679	     89.39340175	     81.31370848	      0.00000000	     -0.00000000	     -0.00000000	      0.00000000
      2.15075377	     -2.80852349	      1.18955799	     -1.18955799	      2.80852349	     -0.56866888	      4.59578183	      2.06577230	     -2.06577230	     -4.59578183	      0.56866888	     69.93578924	     11.60544295	    -69.93578924	      8.90034679	     89.86562045	     81.21288656	      0.00000000	     -0.00000000	     -0.00000000	      0.00000000
      2.17085427	     -2.80852349	      1.18955799	     -1.18955799	      2.80852349	     -0.56866888	      4.59578183	      2.06577230	     -2.06577230	     -4.59578183	      0.56866888	     69.93578924	     11.60544295	    -69.93578924	      8.90034679	     90.33766048	     81.12005237	      0.00000000	     -0.00000000	     -0.00000000	      0.00000000
      2.19095477	     -2.80852349	      1.18955799	     -1.18955799	      2.80852349	     -0.56866888	      4.59578183	      2.06577230	     -2.06577230	     -4.59578183	      0.56866888	     69.93578924	     11.60544295	    -69.93578924	      8.90034679	     90.80879265	     81.03468142	      0.00000000	     -0.00000000	     -0.00000000	      0.00000000
      2.21105528	     -2.80852349	      1.18955799	     -1.18955799	      2.80852349	     -0.56866888	      4.59578183	      2.06577230	     -2.06577230	     -4.59578183	      0.56866888	     69.93578924	     11.60544295	    -69.93578924	      8.90034679	     91.30387353	     81.31471907	      0.00000000	     -0.00000000	     -0.00000000	      0.00000000
      2.23115578	     -2.80852349	      1.18955799	     -1.18955799	      2.80852349	     -0.56866888	      4.59578183	      2.06577230	     -2.06577230	     -4.59578183	      0.56866888	     69.93578924	     11.60544295	    -69.93578924	      8.90034679	     91.76961661	     81.21295695	      0.00000000	     -0.00000000	     -0.00000000	      0.00000000
      2.25125628	     -2.80852349	      1.18955799	     -1.18955799	      2.80852349	     -0.56866888	      4.59578183	      2.06577230	     -2.06577230	     -4.59578183	      0.56866888	     69.93578924	     11.60544295	    -69.93578924	      8.90034679	     92.23424270	     81.11950885	      0.00000000	     -0.00000000	     -0.00000000	      0.00000000
      2.27135678	     -2.80852349	      1.18955799	     -1.18955799	      2.80852349	     -0.56866888	      4.59578183	      2.06577230	     -2.06577230	     -4.59578183	      0.56866888	     69.93578924	     11.60544295	    -69.93578924	      8.90034679	     92.69697227	     81.03383154	      0.00000000	     -0.00000000	     -0.00000000	      0.00000000
      2.29145729	     -2.80852349	      1.18955799	     -1.18955799	      2.80852349	     -0.56866888	      4.59578183	      2.06577230	     -2.06577230	     -4.59578183	      0.56866888	     69.93578924	     11.60544295	    -69.93578924	      8.90034679	     93.18293123	     81.31636838	      0.00000000	     -0.00000000	     -0.00000000	      0.00000000
      2.31155779	     -2.80852349	      1.18955799	     -1.18955799	      2.80852349	     -0.56866888	      4.59578183	      2.06577230	     -2.06577230	     -4.59578183	      0.56866888	     69.93578924	     11.60544295	    -69.93578924	      8.90034679	     93.63821487	     81.21431892	      0.00000000	     -0.00000000	     -0.00000000	      0.00000000
      2.33165829	     -2.80852349	      1.18955799	     -1.18955799	      2.80852349	     -0.56866888	      4.59578183	      2.06577230	     -2.06577230	     -4.59578183	      0.56866888	     69.93578924	     11.60544295	    -69.93578924	      8.90034679	     94.09150266	     81.12086351	      0.00000000	     -0.00000000	     -0.00000000	      0.00000000
      2.35175879	     -2.80852349	      1.18955799	     -1.18955799	      2.80852349	     -0.56866888	      4.59578183	      2.06577230	     -2.06577230	     -4.59578183	      0.56866888	     69.93578924	     11.60544295	    -69.93578924	      8.90034679	     94.54196193	     81.03544505	      0.00000000	     -0.00000000	     -0.00000000	      0.00000000
      2.37185930	     -2.80852349	      1.18955799	     -1.18955799	      2.80852349	     -0.56866888	      4.59578183	      2.06577230	     -2.06577230	     -4.59578183	      0.56866888	     69.93578924	     11.60544295	    -69.93578924	      8.90034679	     95.01476537	     81.31876166	      0.00000000	     -0.00000000	     -0.00000000	      0.00000000
      2.39195980	     -2.80852349	      1.18955799	     -1.18955799	      2.80852349	     -0.56866888	      4.59578183	      2.06577230	     -2.06577230	     -4.59578183	      0.56866888	     69.93578924	     11.60544295	    -69.93578924	      8.90034679	     95.45124026	     81.14084565	      0.00000000	     -0.00000000	     -0.00000000	      0.00000000
      2.41206030	     -2.80852349	      1.18955799	     -1.18955799	      2.80852349	     -0.56866888	      4.59578183	      2.06577230	     -2.06577230	     -4.59578183	      0.56866888	     69.93578924	     11.60544295	    -69.93578924	      8.90034679	     95.91033362	     81.29511981	      0.00000000	     -0.00000000	     -0.00000000	      0.00000000
      2.43216080	     -2.80852349	      1.18955799	     -1.18955799	      2.80852349	     -0.56866888	      4.59578183	      2.06577230	     -2.06577230	     -4.59578183	      0.56866888	     69.93578924	     11.60544295	    -69.93578924	      8.90034679	     96.33443505	     81.11247357	      0.00000000	     -0.00000000	     -0.00000000	      0.00000000
      2.45226131	     -2.80852349	      1.18955799	     -1.18955799	      2.80852349	     -0.56866888	      4.59578183	      2.06577230	     -2.06577230	     -4.59578183	      0.56866888	     69.93578924	     11.60544295	    -69.93578924	      8.90034679	     96.78711293	     81.29087599	      0.00000000	     -0.00000000	     -0.00000000	      0.00000000
      2.47236181	     -2.80852349	      1.18955799	     -1.18955799	      2.80852349	     -0.56866888	      4.59578183	      2.06577230	     -2.06577230	     -4.59578183	      0.56866888	     69.93578924	     11.60544295	    -69.93578924	      8.90034679	     97.20078452	     81.10087987	      0.00000000	     -0.00000000	     -0.00000000	      0.00000000
      2.49246231	     -2.80852349	      1.18955799	     -1.18955799	      2.80852349	     -0.56866888	      4.59578183	      2.06577230	     -2.06577230	     -4.59578183	      0.56866888	     69.93578924	     11.60544295	    -69.93578924	      8.90034679	     97.64259761	     81.32323995	      0.00000000	     -0.00000000	     -0.00000000	      0.00000000
      2.51256281	     -2.80852349	      1.18955799	     -1.18955799	      2.80852349	     -0.56866888	      4.59578183	      2.06577230	     -2.06577230	     -4.59578183	      0.56866888	     69.93578924	     11.60544295	    -69.93578924	      8.90034679	     98.04976177	     81.12103426	      0.00000000	     -0.00000000	     -0.00000000	      0.00000000
      2.53266332	     -2.80852349	      1.18955799	     -1.18955799	      2.80852349	     -0.56866888	      4.59578183	      2.06577230	     -2.06577230	     -4.59578183	      0.56866888	     69.93578924	     11.60544295	    -69.93578924	      8.90034679	     98.48007197	     81.32495715	      0.00000000	     -0.00000000	     -0.00000000	      0.00000000
      2.55276382	     -2.80852349	      1.18955799	     -1.18955799	      2.80852349	     -0.56866888	      4.59578183	      2.06577230	     -2.06577230	     -4.59578183	      0.56866888	     69.93578924	     11.60544295	    -69.93578924	      8.90034679	     98.87591954	     81.11408957	      0.00000000	     -0.00000000	     -0.00000000	      0.00000000
      2.57286432	     -2.80852349	      1.18955799	     -1.18955799	      2.80852349	     -0.56866888	      4.59578183	      2.06577230	     -2.06577230	     -4.59578183	      0.56866888	     69.93578924	     11.60544295	    -69.93578924	      8.90034679	     99.29591737	     81.32676578	      0.00000000	     -0.00000000	     -0.00000000	      0.00000000
      2.59296482	     -2.80852349	      1.18955799	     -1.18955799	      2.80852349	     -0.56866888	      4.59578183	      2.06577230	     -2.06577230	     -4.59578183	      0.56866888	     69.93578924	     11.60544295	    -69.93578924	      8.90034679	     99.67976217	     81.10695183	      0.00000000	     -0.00000000	     -0.00000000	      0.00000000
